<svg xmlns="http://www.w3.org/2000/svg" width="32" height="32" fill="none"><path fill="url(#a)" d="M10.803 2.197C13.34.732 14.608 0 16.002 0c1.392 0 2.66.732 5.197 2.197l4.158 2.4c2.536 1.465 3.804 2.197 4.5 3.403.696 1.206.697 2.67.697 5.6v4.8c0 2.93 0 4.394-.697 5.6-.696 1.206-1.964 1.938-4.5 3.403l-4.159 2.4C18.662 31.268 17.393 32 16.001 32c-1.393 0-2.661-.732-5.198-2.197l-4.157-2.4C4.109 25.938 2.84 25.206 2.145 24c-.697-1.206-.697-2.67-.697-5.6v-4.8c0-2.93 0-4.394.697-5.6.696-1.206 1.964-1.938 4.5-3.403l4.159-2.4z"/><defs><linearGradient id="a" x1="30.553" x2="-504.792" y1="55.368" y2="55.368" gradientUnits="userSpaceOnUse"><stop stop-color="#FF4D6C"/><stop offset="1" stop-color="#fff"/></linearGradient></defs></svg>