<svg height="48" viewBox="0 0 77 29" xmlns="http://www.w3.org/2000/svg" aria-label="Plaid">
  <g fill="#111111">
    <path d="M4.09 17.896l2.32-2.319V6.86L4.09 4.543v-.91H.12v.91l2.32 2.318v8.716l-2.32 2.32v.91h8.55v-3.41h-.9l-1.36 1.76H4.09v-1.26zm12.09-7.266c2.22 0 3.62 1.76 3.62 4.66 0 2.92-1.4 4.66-3.62 4.66-2.21 0-3.62-1.74-3.62-4.66 0-2.9 1.41-4.66 3.62-4.66zm6.91-6.36h-2.81v4.55c0 .76.03 1.58.09 2.46h-.06c-.82-1.34-2.22-1.94-3.95-1.94-3.74 0-6.6 2.97-6.6 7.77 0 4.73 2.77 7.71 6.39 7.71 1.86 0 3.45-.67 4.39-2.11h.06c.18.67.36 1.37.6 1.95h2.99c-.25-.55-.48-1.24-.64-1.91-.16-.61-.22-1.61-.22-3.31V4.27zm8.07 6.36c-1.45 0-2.73.52-3.59 1.82h-.06c.03-.55.06-1.15.06-1.64v-.45h-2.96v14.45h2.96v-8.53c0-.06-.01-.12-.01-.18 0-1.43 1.24-2.87 3.14-2.87 1.84 0 2.69 1.31 2.69 3.31v8.27h2.96v-8.57c0-4.14-2.06-5.61-5.19-5.61zm15.02 4.51c0 1.27-.67 2.11-1.61 2.56-.46.2-.94.3-1.43.3-1.21 0-1.85-.64-1.85-1.61 0-1.34 1.4-2.44 4.89-2.54v1.29zm-6.91-3.92l.85.49c.73-1.27 2.08-1.7 3.44-1.7h.46c.46 0 .91.06 1.31.15.64.21 1.06.72 1.06 1.48v1.64h-.06c-5.22 0-8.27 1.79-8.27 5.28 0 2.51 1.67 4.32 4.42 4.32 2.02 0 3.38-.79 4.21-2.14h.06l.03.33c.06.52.18 1.09.33 1.64h2.9a9.733 9.733 0 01-.48-3.35V14.3c0-3.04-1.46-5.01-5.59-5.01-2.41.01-4.54 1.03-4.67 3.93zm12.96-6.95l.24.64 1.49 1.03v15.09h2.96V4.26h-4.69v.01zM68 10.63c1.66 0 2.9 1.03 3.14 3.07h-6.36c.3-2.01 1.52-3.07 3.22-3.07zm6.3 6.24l-.18-.64c-.12-.43-.24-.73-.36-1.03-.18-.61-.36-1.18-.58-1.73-.73-2.08-2.6-4.2-5.59-4.2-3.8 0-6.51 2.97-6.51 7.83 0 5.13 2.87 7.77 6.66 7.77 2.56 0 5.01-1.24 5.98-4.14l-.88-.46c-.85 1.64-2.32 2.5-4.11 2.5-2.44 0-4.45-1.7-4.48-5.92h10v.02zm-2.43 5.21c0 .64-.51 1.15-1.15 1.15a1.141 1.141 0 010-2.29c.64 0 1.15.51 1.15 1.14zm5.25 0c0 .64-.52 1.15-1.15 1.15a1.141 1.141 0 010-2.29c.64 0 1.15.51 1.15 1.14z"></path>
  </g>
</svg>
